{"title":"Tactical Force 2011 DVDrip English Klam","uid":6593439,"size":1506474720,"categoryP":"video","categoryS":"movies","magnet":"?xt=urn:btih:8cce93d14289d66bbd4dfd09847cf5d35c47f9a5&amp;dn=Tactical+Force+2011+DVDrip+English+Klam&amp;tr=udp%3A%2F%2Ftracker.openbittorrent.com%3A80&amp;tr=udp%3A%2F%2Fopen.demonii.com%3A1337&amp;tr=udp%3A%2F%2Ftracker.coppersurfer.tk%3A6969&amp;tr=udp%3A%2F%2Fexodus.desync.com%3A6969","seeders":1,"leechers":0,"uploader":"Klambake","files":-1,"time":1312923981,"description":"With: Steve Austin, Michael Jai White and Lexa Doig\n\nEen training voor een SWAT-team van de politie van Los Angeles lijkt vreselijk mis te gaan wanneer ze het moeten opnemen tegen twee rivaliserende bendes. Ze zitten opgesloten in een verlaten hangar en hebben alleen maar losse flodders in hun geweren.\n\nA training exercise for the LAPD SWAT Team goes terribly wrong when they find themselves pitted against two rival gangs while trapped in an abandoned Hangar, armed with nothing but blanks. \n\n------------------ Dutch Friends ------------------\nYou can find my Friends at: http://www.Film-Test.nl \n------ They got my dutchs subs ---- and more ------\n\nGeneral:\n\nComplete name                    : Tactical Force\\Tactical Force.avi\nFormat                           : AVI\nFormat/Info                      : Audio Video Interleave\nFile size                        : 1.40 GiB\nDuration                         : 1h 30mn\nOverall bit rate                 : 2 218 Kbps\n\nVideo:\n\nFormat                           : MPEG-4 Visual\nFormat profile                   : Simple@L3\nFormat settings, BVOP            : No\nFormat settings, QPel            : No\nFormat settings, GMC             : No warppoints\nFormat settings, Matrix          : Default (H.263)\nCodec ID                         : XVID\nCodec ID/Hint                    : XviD\nDuration                         : 1h 28mn\nBit rate                         : 1 803 Kbps\nWidth                            : 704 pixels\nHeight                           : 396 pixels\nDisplay aspect ratio             : 16:9\nFrame rate                       : 23.976 fps\nColor space                      : YUV\nChroma subsampling               : 4:2:0\nBit depth                        : 8 bits\nScan type                        : Progressive\nBits/(Pixel*Frame)               : 0.270\nStream size                      : 1.11 GiB (79%)\nWriting library                  : XviD 1.1.2 (UTC 2006-11-01)\n\nAudio:\n\nFormat                           : AC-3\nFormat/Info                      : Audio Coding 3\nMode extension                   : CM (complete main)\nCodec ID                         : 2000\nDuration                         : 1h 30mn\nBit rate mode                    : Constant\nBit rate                         : 448 Kbps\nChannel(s)                       : 6 channels\nChannel positions                : Front: L C R, Side: L R, LFE\nSampling rate                    : 48.0 KHz\nBit depth                        : 16 bits\nStream size                      : 290 MiB (20%)\nAlignment                        : Aligned on interleaves\nInterleave, duration             : 31 ms (0.75 video frame)\nInterleave, preload duration     : 736 ms\n\n","torrent":{"xt":"urn:btih:8cce93d14289d66bbd4dfd09847cf5d35c47f9a5","amp;dn":"Tactical+Force+2011+DVDrip+English+Klam","amp;tr":["udp%3A%2F%2Ftracker.openbittorrent.com%3A80","udp%3A%2F%2Fopen.demonii.com%3A1337","udp%3A%2F%2Ftracker.coppersurfer.tk%3A6969","udp%3A%2F%2Fexodus.desync.com%3A6969"],"infoHash":"8cce93d14289d66bbd4dfd09847cf5d35c47f9a5","infoHashBuffer":{"type":"Buffer","data":[140,206,147,209,66,137,214,107,189,77,253,9,132,124,245,211,92,71,249,165]},"announce":[],"urlList":[]}}